<svg id="a" width="250mm" height="250mm" version="1.1" viewBox="0 0 250 250" xmlns="http://www.w3.org/2000/svg">
  <g id="b">
    <g id="c" transform="matrix(2.5223 0 0 2.5223 -499.93 168.74)" stroke-width=".26458">
      <path id="d" d="m241.17 31.886c-8.53-1.1581-16.887-4.6762-23.88-10.052-8.7239-6.7075-15.354-17.209-17.785-28.17-4.4395-20.016 3.7084-40.432 20.701-51.869 9.5802-6.4481 21.073-9.3232 32.612-8.1586 14.476 1.461 27.798 9.4784 35.98 21.653 7.603 11.314 10.171 24.994 7.2035 38.374-5.0198 22.632-25.365 38.804-48.593 38.623-1.9207-0.01497-4.7282-0.19503-6.239-0.40013zm22.496-25.248c0.94937-1.1221 1.323-2.6019 2.8702-11.366 2.8914-16.379 4.6953-29.297 4.3158-30.904-0.50067-2.1208-2.2876-2.083-8.3155 0.17593-8.9747 3.3633-44.151 18.481-45.12 19.391-0.78269 0.73529-0.79273 1.6387-0.0238 2.1377 0.32742 0.21247 1.905 0.81627 3.5057 1.3418 6.6686 2.1892 9.3017 2.5053 11.673 1.4013 0.74472-0.34676 6.3776-3.977 12.517-8.0672 11.181-7.4488 12.097-7.9529 12.931-7.1192 1.0476 1.0477 0.13697 2.0827-11.795 13.407-2.6603 2.5247-5.0215 4.9472-5.247 5.3834-0.52796 1.021-0.33357 1.7374 0.74688 2.7527 1.4027 1.3181 16.962 11.658 18.232 12.116 1.6153 0.5827 2.8505 0.36619 3.7106-0.65036z" fill="#e7f3f9"/>
      <path id="e" d="m243.64 32.041c-20.662-1.701-38.332-16.557-43.605-36.661-1.12-4.2702-1.5479-7.7375-1.5479-12.544 0-13.091 4.7046-24.753 13.809-34.228 10.095-10.507 24.163-15.916 38.895-14.955 20.787 1.3555 38.815 16.182 44.2 36.351 1.1932 4.4686 1.6319 7.9184 1.6319 12.832 0 13.768-5.23 26.038-15.169 35.589-8.3634 8.0362-18.661 12.655-30.376 13.626-3.38 0.28015-4.3214 0.27888-7.8367-0.01053zm19.92-25.098c0.42045-0.42044 0.96511-1.3858 1.2104-2.1451 1.2059-3.7339 6.268-35.354 6.268-39.153 0-1.3644-0.10156-1.719-0.64943-2.2668-1.2971-1.2971-3.1925-0.86955-12.264 2.7664-12.516 5.0162-39.486 16.701-40.719 17.642-1.0092 0.76977-1.1051 1.4582-0.30666 2.2021 0.97169 0.90527 10.486 3.7211 12.589 3.7257 1.849 4e-3 3.6938-1.0441 14.892-8.4614 6.3302-4.1928 11.771-7.7009 12.091-7.7956 0.77352-0.22913 1.6853 0.6543 1.4811 1.4351-0.0807 0.3087-2.8384 3.1453-6.1281 6.3035-11.055 10.613-11.413 10.99-11.413 12.002 0 0.49409 0.18153 1.1575 0.40341 1.4743 0.61265 0.87469 17.392 12.24 18.779 12.719 0.43657 0.15096 1.2906 0.28388 1.8979 0.29536 0.88063 0.016669 1.2589-0.13385 1.8686-0.74356z" fill="#d7ecf6"/>
      <path id="f" d="m242.73 31.896c-0.3638-0.06225-1.5544-0.23939-2.6458-0.39364-10.623-1.5014-22.02-7.7603-29.248-16.063-4.121-4.7336-8.0039-11.489-9.8938-17.214-2.0391-6.1767-2.8835-14.295-2.1509-20.68 1.9227-16.76 11.884-31.099 26.836-38.627 7.1897-3.6201 14.157-5.2835 22.13-5.2835 12.208 0 23.355 4.26 32.849 12.554 7.3332 6.4062 13.185 16.411 15.265 26.098 1.8178 8.466 1.3436 17.933-1.2996 25.939-2.6016 7.8806-8.1001 16.211-14.212 21.532-6.8837 5.993-15.098 9.9565-24.175 11.664-2.1075 0.39648-11.894 0.74152-13.455 0.47438zm20.582-24.603c0.82865-0.58041 1.5828-2.1749 2.0227-4.2762 1.2403-5.9252 4.5707-26.372 5.4208-33.282 0.66711-5.4221 0.49747-6.4565-1.1479-6.9995-1.3624-0.44964-3.603 0.18312-10.809 3.0525-10.278 4.0928-39.599 16.695-41.138 17.681-0.88288 0.56578-1.3026 1.4318-1.0336 2.1328 0.24097 0.62795 1.9826 1.3721 6.2952 2.6899 3.4848 1.0648 4.4049 1.2456 6.4462 1.2667 1.9953 0.02064 2.5624-0.07218 3.4989-0.57258 0.6147-0.32846 6.132-3.9301 12.261-8.0036 11.708-7.7816 12.477-8.1858 12.84-6.7423 0.23498 0.93623-0.41963 1.7076-5.6245 6.6274-7.4451 7.0373-11.226 10.796-11.625 11.558-0.51307 0.9779-0.25513 1.8039 0.90759 2.9065 1.1702 1.1096 16.14 11.189 17.641 11.878 1.3046 0.59877 3.2523 0.63874 4.0457 0.083016z" fill="#c7e5f3"/>
      <path id="g" d="m242.07 31.74c-8.9415-1.0102-18.225-4.9342-25.276-10.684-2.4265-1.9786-6.7646-6.4987-8.4954-8.8518-14.807-20.131-12.538-47.398 5.3851-64.724 19.048-18.412 49.103-18.412 68.15 0 17.923 17.325 20.192 44.593 5.3851 64.724-1.7308 2.3532-6.0689 6.8733-8.4954 8.8518-8.7885 7.1661-20.021 11.084-31.417 10.957-1.7156-0.01903-4.0718-0.14222-5.236-0.27375zm21.505-24.618c0.3627-0.33318 0.87241-1.082 1.1327-1.6641 1.1064-2.4743 6.3277-34.465 6.4219-39.347 0.0391-2.0238-0.0234-2.3734-0.512-2.8642-1.3671-1.3734-3.6784-0.83917-13.466 3.1128-11.26 4.5461-38.155 16.183-39.585 17.128-2.2532 1.488-1.2848 2.753 3.205 4.1867 6.7026 2.1404 9.184 2.4744 11.573 1.5579 0.69279-0.26583 6.2958-3.8369 12.451-7.9357 6.1553-4.0988 11.485-7.526 11.844-7.616 0.75605-0.18976 1.439 0.27082 1.439 0.97048 0 0.59699-2.8876 3.5256-10.637 10.789-3.304 3.0964-6.2508 6.0239-6.5484 6.5055-1.3331 2.1569-0.92804 2.574 9.0218 9.2898 4.7085 3.1781 9.1563 5.9957 9.8839 6.2613 1.5926 0.58143 2.8765 0.45441 3.778-0.37381z" fill="#bce0f2"/>
      <path id="h" d="m242.59 31.759c-6.6749-0.69334-13.739-3.0126-19.497-6.4012-18.345-10.796-27.718-31.731-23.481-52.443 1.9666-9.6137 7.1409-18.877 14.362-25.713 18.987-17.972 48.563-17.972 67.55 0 20.354 19.267 20.49 51.473 0.30004 70.99-10.483 10.133-24.761 15.071-39.234 13.567zm20.497-24.179c1.2913-0.66774 2.0152-2.6429 3.0561-8.3388 2.6702-14.61 4.9458-29.673 4.9898-33.028 0.0314-2.3941 0.01-2.4878-0.71002-3.1089-1.4333-1.2363-3.0394-0.8687-12.222 2.7971-8.4362 3.3678-36.63 15.451-39.803 17.059-0.73187 0.37087-1.5213 0.96521-1.7542 1.3208-0.96633 1.4748 0.19713 2.2777 5.7092 3.9398 6.334 1.91 8.2248 2.0377 10.79 0.72879 0.5428-0.27692 5.9043-3.7893 11.914-7.8053 6.0101-4.016 11.228-7.3772 11.594-7.4692 0.82352-0.20669 1.5399 0.41664 1.3103 1.1401-0.17181 0.54133-5.5673 5.9164-12.539 12.492-5.2873 4.9866-5.8288 5.8862-4.5339 7.5324 0.4647 0.59077 13.786 9.815 17.037 11.797 2.1774 1.3275 3.8325 1.6301 5.1604 0.94336z" fill="#b6ddf0"/>
      <path id="i" d="m243.12 31.755c-12.347-1.1503-24.088-7.1841-32.341-16.62-13.38-15.297-15.923-37.375-6.3728-55.318 7.9348-14.908 23.024-24.713 39.871-25.907 19.334-1.3709 37.71 8.798 46.817 25.907 7.3144 13.743 7.6677 30.194 0.94887 44.185-8.9313 18.599-28.433 29.662-48.923 27.752zm20.491-24.432c1.3766-1.2458 2.0035-4.015 4.9151-21.709 1.6615-10.097 2.7723-18.098 2.7723-19.969 0-3.1675-1.7166-3.8956-5.9367-2.518-4.3878 1.4323-18.352 7.2335-37.852 15.724-10.567 4.6015-11.575 5.1943-11.1 6.5313 0.32978 0.92874 1.5233 1.5241 5.5394 2.7633 6.1203 1.8885 8.2711 2.1225 10.593 1.1525 0.50088-0.20928 6.003-3.7609 12.227-7.8925 6.2239-4.1316 11.572-7.5878 11.884-7.6805 0.72862-0.21642 1.4187 0.44709 1.227 1.1799-0.0785 0.30029-2.598 2.8906-5.5988 5.7563-3.0008 2.8657-6.9146 6.6539-8.6972 8.4183-3.0162 2.9853-3.2411 3.2778-3.2411 4.2155 0 0.84487 0.1845 1.182 1.1422 2.0868 1.3141 1.2415 17.112 11.841 18.305 12.282 1.0999 0.4063 3.2032 0.2182 3.822-0.34179z" fill="#a6d6ed"/>
      <path id="j" d="m243.9 31.762c-19.862-1.4353-37.29-15.473-43.079-34.7-1.5874-5.2721-1.885-7.541-1.883-14.357 2e-3 -5.3495 0.0772-6.4534 0.62509-9.1281 3.8156-18.628 17.59-33.382 35.549-38.075 4.9542-1.2949 6.533-1.4797 12.64-1.4797s7.6859 0.18484 12.64 1.4797c17.958 4.6939 31.733 19.448 35.549 38.075 0.54788 2.6748 0.62347 3.7786 0.62508 9.1281 2e-3 6.8163-0.29552 9.0852-1.883 14.357-5.1891 17.234-19.566 30.294-37.333 33.914-2.1824 0.44473-9.3006 1.1615-10.259 1.033-0.14552-0.0195-1.5811-0.1306-3.1903-0.24688zm19.692-24.463c0.43953-0.36984 1.0304-1.2926 1.3129-2.0505 1.1538-3.0947 5.9988-32.612 6.3128-38.46 0.15678-2.9194 0.15119-2.9578-0.52902-3.638-1.5781-1.5781-4.1401-0.88163-18.174 4.9404-8.7565 3.6327-32.198 13.759-34.116 14.737-2.2088 1.1268-2.7438 2.3989-1.4402 3.4243 0.7616 0.59907 6.0148 2.382 9.4322 3.2013 2.817 0.67537 4.2236 0.65371 6.0154-0.09261 0.80036-0.33338 6.5021-3.9683 12.671-8.0775 11.695-7.7912 12.471-8.2011 12.683-6.7034 0.0979 0.69023-2.0603 2.9219-10.802 11.17-6.1252 5.7793-6.6146 6.3454-6.6146 7.6521 0 0.77392 0.19913 1.1586 0.99219 1.9164 1.1979 1.1447 16.43 11.476 17.926 12.159 1.5807 0.72106 3.3483 0.64839 4.3304-0.17803z" fill="#9ad2ec"/>
      <path id="k" d="m242.2 31.618c-14.189-1.7332-27.124-9.5921-34.962-21.241-3.1947-4.7484-5.4565-9.6914-6.818-14.901-1.3024-4.983-1.48-6.5202-1.4757-12.772 3e-3 -5.0174 0.0884-6.2408 0.61555-8.8635 3.1077-15.463 12.741-28.101 26.632-34.936 26.737-13.157 59.099 0.59347 68.214 28.983 1.7482 5.4451 2.1569 8.2466 2.1615 14.817 4e-3 6.2522-0.17326 7.7894-1.4757 12.772-4.1123 15.733-16.316 28.713-31.858 33.885-5.2963 1.7625-8.1551 2.2137-14.552 2.2968-3.0559 0.0397-5.973 0.02127-6.4823-0.04094zm21.271-24.2c1.5694-1.2345 1.9804-2.839 4.3645-17.041 2.8334-16.878 3.8337-24.312 3.4812-25.875-0.45566-2.0204-1.6678-2.5443-4.413-1.9077-2.3614 0.54764-13.114 4.8432-26.09 10.422-25.338 10.895-24.675 10.567-24.495 12.118 0.12061 1.0381 1.383 1.7861 4.8287 2.8608 7.0212 2.19 9.3636 2.4265 11.8 1.1914 0.65056-0.32977 6.171-3.9237 12.268-7.9865 11.555-7.7001 12.337-8.113 12.549-6.6201 0.0995 0.70146-1.6761 2.5197-10.853 11.114-4.1314 3.869-5.8944 5.7005-6.3061 6.5508-1.0171 2.101-0.81849 2.3008 8.7591 8.8121 4.5726 3.1087 8.9091 5.9352 9.6367 6.2813 1.7015 0.80919 3.5017 0.84146 4.4696 0.080132z" fill="#94cdea"/>
      <path id="l" d="m241.67 31.513c-7.8994-1.0943-15.971-4.247-22.206-8.6736-2.8289-2.0085-7.4538-6.3271-9.6184-8.9815-5.9676-7.3179-9.6581-16.154-10.801-25.861-0.37871-3.2162-0.16886-10.2 0.40001-13.313 4.0142-21.963 21.388-38.216 43.321-40.526 21.508-2.2655 42.212 10.207 50.382 30.352 2.2153 5.4621 3.2478 10.397 3.4747 16.607 0.30678 8.3959-1.2608 15.8-4.9296 23.282-2.7031 5.5128-5.6228 9.462-10.318 13.956-6.6213 6.3375-14.745 10.588-23.954 12.533-2.6704 0.56399-4.058 0.68772-8.6076 0.76756-2.9832 0.05235-6.1979-0.01204-7.1438-0.14306zm21.069-23.538c0.71285-0.0086 1.9899-1.775 2.486-3.4386 0.8496-2.8491 4.601-25.173 5.8197-34.632 0.61862-4.8016 0.54055-6.0256-0.4432-6.9491-0.87284-0.81932-2.7221-0.81224-5.2514 0.02014-6.4642 2.1273-46.329 19.112-48.191 20.533-1.0811 0.82458-1.1868 1.8666-0.27632 2.722 1.1786 1.1072 10.174 3.75 12.764 3.75 0.78898 0 2.0013-0.21695 2.6941-0.48212 0.69279-0.26517 6.2895-3.8346 12.437-7.9322s11.469-7.5232 11.825-7.6126c0.78476-0.19696 1.2068 0.0272 1.2068 0.64096 0 0.471-5.4489 5.951-12.733 12.806-5.2675 4.957-5.7774 5.9583-3.9964 7.8486 0.7519 0.79804 15.83 11.078 17.608 12.005 1.2414 0.64708 2.5156 0.97651 3.2223 0.83311 0.29104-0.059058 0.66387-0.109 0.8285-0.11099z" fill="#87c8e8"/>
      <path id="m" d="m242.2 31.491c-12.698-1.4371-24.543-8.0124-32.64-18.119-17.89-22.331-12.779-55.166 11.076-71.152 16.387-10.982 37.852-10.982 54.24 0 5.5255 3.7031 9.726 7.8859 13.398 13.342 11.977 17.795 11.04 41.133-2.3218 57.811-10.54 13.156-27.08 20.006-43.752 18.119zm21.118-23.792c1.403-0.85537 2.0177-2.6158 3.2045-9.1768 2.113-11.682 4.5268-27.172 4.9426-31.718 0.21428-2.3433-0.17157-3.6665-1.2285-4.2131-1.6221-0.8388-3.3244-0.41201-11.765 2.9496-10.022 3.9913-39.56 16.718-41.015 17.671-1.0889 0.71346-1.5739 1.6575-1.2343 2.4027 0.38453 0.84395 1.6567 1.4637 5.3398 2.6014 6.7818 2.0948 8.7132 2.2987 11.149 1.1767 0.78042-0.35951 6.3474-3.9483 12.371-7.9751 6.0237-4.0268 11.245-7.3951 11.604-7.485 0.62612-0.15715 1.1101 0.19874 1.1201 0.82364 5e-3 0.29848-5.325 5.5887-12.012 11.923-2.6069 2.4694-4.958 4.8474-5.2245 5.2846-0.67131 1.1008-0.60748 2.0657 0.20014 3.0256 0.63439 0.75392 16.115 11.432 17.947 12.38 1.9098 0.98762 3.3533 1.0913 4.6012 0.33051z" fill="#76c2e6"/>
      <path id="n" d="m242.75 31.482c-16.833-1.7596-31.729-12.248-39.026-27.479-7.8464-16.378-6.0027-35.575 4.828-50.271 1.7797-2.4148 5.8592-6.6668 8.3728-8.7267 5.9941-4.9123 13.665-8.5043 21.59-10.109 2.6427-0.53524 3.7862-0.61089 9.2339-0.61089s6.5912 0.07565 9.234 0.61089c17.705 3.5858 31.863 16.174 37.289 33.155 3.7922 11.867 2.9019 24.68-2.4983 35.951-8.8633 18.5-28.676 29.606-49.024 27.479zm21.001-24.035c1.5265-1.434 2.0792-3.8301 5.0361-21.833 1.9334-11.771 2.8489-18.724 2.7138-20.611-0.21764-3.0401-2.0982-3.5427-6.995-1.8695-4.667 1.5946-23.554 9.5249-43.122 18.106-7.0867 3.1077-7.2001 4.6842-0.49043 6.8204 6.984 2.2235 9.4223 2.5264 11.774 1.4626 0.65484-0.2962 5.9256-3.7064 11.713-7.5783 11.793-7.8904 12.521-8.3248 13.055-7.7914 0.30076 0.30076 0.2794 0.4869-0.13392 1.1665-0.27048 0.44477-3.8699 4.001-7.9986 7.9027-4.1288 3.9017-7.8938 7.5709-8.3667 8.1538-1.1415 1.4069-1.1491 2.4896-0.0266 3.7681 0.96231 1.096 17.203 12.141 18.683 12.706 1.4008 0.53475 3.3637 0.34457 4.1594-0.40298z" fill="#6abae2"/>
      <path id="o" d="m243.9 31.497c-7.7692-0.56143-16.086-3.3789-22.607-7.6584-9.355-6.1397-16.346-15.151-19.801-25.524-1.6572-4.9749-2.1985-8.2003-2.3532-14.023-0.22777-8.5727 1.0714-14.886 4.5991-22.349 6.0844-12.872 17.902-22.666 31.583-26.176 5.0103-1.2851 6.6198-1.4763 12.431-1.4763s7.4206 0.19115 12.431 1.4763c18.877 4.8419 33.038 20.81 35.876 40.455 0.60811 4.2093 0.41188 11.897-0.40857 16.007-1.5298 7.6634-5.2538 15.583-10.077 21.431-1.6925 2.052-5.483 5.8092-7.5263 7.4601-5.5402 4.4764-13.385 8.1162-20.665 9.5884-2.2097 0.44684-9.334 1.1636-10.291 1.0353-0.14552-0.0195-1.5811-0.1306-3.1903-0.24688zm19.837-24.071c0.54753-0.48074 1.1376-1.3853 1.4523-2.2265 1.2392-3.312 6.3752-34.976 6.3752-39.304 0-2.5583-0.35383-3.1936-2.0466-3.6744-1.4015-0.39807-3.8114 0.28398-10.715 3.0326-11.945 4.7559-40.416 17.058-41.658 18.001-1.6412 1.245-1.5009 2.6028 0.3726 3.6051 1.3973 0.74755 5.3453 2.0155 8.9648 2.8792 2.8488 0.67976 4.7519 0.57524 6.6024-0.36261 0.7185-0.36413 6.2258-3.9493 12.239-7.9671 10.671-7.1306 12.219-7.9969 12.219-6.8388 0 0.49132-5.3941 5.9328-12.014 12.12-2.1693 2.0274-4.2827 4.1505-4.6964 4.718-0.90316 1.2391-0.98081 2.534-0.21634 3.6076 0.58642 0.82355 16.726 11.856 18.565 12.691 0.62678 0.28445 1.701 0.51981 2.3872 0.523 1.019 0.00474 1.4165-0.1425 2.1698-0.8039z" fill="#53b4e1"/>
      <path id="p" d="m240.61 31.086c-24.583-3.7362-42.376-25.126-41.458-49.837 0.27593-7.4315 1.9297-13.851 5.2469-20.368 2.2965-4.5114 4.6433-7.8126 8.1261-11.431 4.5399-4.7164 8.3937-7.5534 13.93-10.255 13.526-6.6002 29.333-6.5584 42.857 0.11345 5.3247 2.6269 9.2176 5.5147 13.671 10.142 3.4829 3.6182 5.8297 6.9194 8.1261 11.431 3.3172 6.5166 4.971 12.937 5.2469 20.368 0.92178 24.826-17.022 46.252-41.757 49.861-3.5055 0.51138-10.547 0.49943-13.989-0.02373zm23.625-23.958c0.40616-0.48151 0.96965-1.6494 1.2522-2.5953 0.93149-3.1182 4.903-26.805 5.9819-35.676 0.5583-4.5909 0.35236-5.6464-1.2713-6.5158-0.86656-0.46399-1.1528-0.4892-2.6458-0.23304-2.8121 0.48247-13.626 4.8387-35.012 14.103-16.681 7.2266-16.667 7.2189-16.489 9.0182 0.11553 1.1715 0.8811 1.6804 4.1996 2.7913 6.8866 2.3054 9.8405 2.6859 12.422 1.6001 0.80037-0.33665 6.3704-3.8989 12.378-7.9161s11.169-7.3822 11.47-7.4777c0.74944-0.23786 1.1492 0.20747 0.78949 0.87955-0.15552 0.29059-2.5776 2.7143-5.3823 5.386-12.323 11.738-12.556 12.008-11.854 13.702 0.50849 1.2276 1.6226 2.0789 10.52 8.0391 5.9481 3.9844 8.8294 5.763 9.525 5.8794 0.54847 0.091789 1.1163 0.19713 1.2618 0.23409 0.74628 0.18955 2.1849-0.4249 2.8551-1.2194z" fill="#4aacdc"/>
      <path id="q" d="m242.46 31.227c-11.785-1.3292-23.138-7.1671-30.898-15.889-5.6221-6.3185-9.7125-14.424-11.395-22.58-2.8434-13.782 0.40977-27.949 9.0527-39.423 3.3338-4.4256 8.6961-9.1834 13.722-12.175 4.6598-2.7738 10.928-5.0989 16.476-6.1121 3.7458-0.68402 12.923-0.68402 16.669 0 9.9354 1.8143 18.913 6.4906 25.944 13.513 4.0615 4.0571 6.6325 7.6326 9.2706 12.893 8.7913 17.529 5.8545 39.035-7.3584 53.884-10.231 11.499-26.194 17.613-41.482 15.889zm21.704-23.992c0.51364-0.57855 1.1325-1.6912 1.3752-2.4726 0.75655-2.4354 4.1134-21.984 5.6147-32.697 0.74283-5.3006 0.83914-7.6298 0.35906-8.6834-0.69031-1.5151-2.8496-1.8392-5.9399-0.89168-2.7754 0.85097-12.551 4.8237-24.7 10.038-23.967 10.287-24.675 10.628-25.036 12.062-0.22057 0.87882 0.53599 1.9208 1.8786 2.5872 1.3536 0.67188 6.988 2.4 9.5777 2.9375 2.2837 0.47403 3.7099 0.37116 5.5016-0.39682 0.62359-0.2673 5.762-3.5713 11.419-7.3421 12.077-8.0505 12.727-8.4493 13.124-8.0524 0.36672 0.36672-2.2687 3.0954-10.427 10.796-3.3005 3.1152-6.2473 6.0628-6.5484 6.55-0.68189 1.1033-0.69513 2.1656-0.0404 3.2394 0.46645 0.76496 2.5843 2.2636 15.453 10.935 3.2053 2.1599 4.5248 2.696 6.2646 2.5452 0.99172-0.085947 1.3466-0.27892 2.1245-1.1551z" fill="#34aade"/>
      <path id="r" d="m242.46 31.227c-16.268-1.8348-30.751-11.873-38.082-26.394-2.2823-4.5211-4.1674-10.711-4.7929-15.737-0.47686-3.8318-0.18832-12.234 0.53751-15.653 2.7287-12.851 10.562-24.258 21.225-30.907 2.2328-1.3923 2.4662-1.4831 2.543-0.98951 0.088 0.56535 1.1061 0.79567 1.1061 0.25022 0-0.1807 0.2539-0.22954 0.66146-0.12725 0.38144 0.09573 0.66146 0.05188 0.66146-0.10361 0-0.39552 2.5696-0.33855 2.7561 0.06111 0.12347 0.26458 0.18521 0.26458 0.30868 0 0.22588-0.48403 1.6977-0.42669 1.6977 0.06615 0 0.27718 0.27928 0.39688 0.92604 0.39688s0.92604-0.11969 0.92604-0.39688c0-0.48668 1.2195-0.5438 1.4123-0.06615 0.10676 0.26458 0.13762 0.26458 0.15434 0 0.0246-0.38962 1.3438-0.45455 1.3438-0.06615 0 0.14552 0.17859 0.26458 0.39688 0.26458 0.21828 0 0.39687-0.11906 0.39687-0.26458s0.35719-0.26458 0.79375-0.26458c0.52917 0 0.79375 0.13229 0.79375 0.39688 0 0.26206 0.26213 0.39688 0.7717 0.39688 0.42444 0 0.83176 0.14883 0.90516 0.33073 0.0797 0.19758 0.14186 0.14431 0.15434-0.13229 0.0141-0.31193 0.23673-0.46302 0.68234-0.46302 0.3638 0 0.66146-0.11906 0.66146-0.26458s0.35719-0.26458 0.79375-0.26458 0.79375 0.11906 0.79375 0.26458 0.17859 0.26458 0.39688 0.26458c0.21828 0 0.39687-0.11906 0.39687-0.26458s0.29766-0.26458 0.66146-0.26458c0.41157 0 0.66146 0.14993 0.66146 0.39688 0 0.27534 0.27683 0.39688 0.90399 0.39688 0.4972 0 0.96405 0.14883 1.0374 0.33073 0.0797 0.19758 0.14186 0.14431 0.15434-0.13229 0.0141-0.31193 0.23673-0.46302 0.68234-0.46302 0.3638 0 0.66146-0.11906 0.66146-0.26458 0-0.38424 1.5151-0.32521 1.6977 0.06615 0.12348 0.26458 0.18521 0.26458 0.30868 0 0.22589-0.48403 1.6978-0.42669 1.6978 0.06615 0 0.27534 0.27683 0.39688 0.90399 0.39688 0.4972 0 0.96405 0.14883 1.0374 0.33073 0.0797 0.19758 0.14186 0.14431 0.15434-0.13229 0.0141-0.31193 0.23673-0.46302 0.68234-0.46302 0.3638 0 0.66146-0.11906 0.66146-0.26458s0.29766-0.26458 0.66146-0.26458 0.66146 0.11906 0.66146 0.26458 0.17859 0.26458 0.39687 0.26458 0.39688-0.11906 0.39688-0.26458 0.35719-0.26458 0.79375-0.26458c0.52916 0 0.79375 0.13229 0.79375 0.39688 0 0.45234 0.43723 0.54038 0.57853 0.11649 0.13411-0.40233 4.184-0.68011 4.184-0.28698 0 0.39083 0.71867 0.3957 0.84866 0.0057 0.067-0.20098 0.53454-0.23712 1.446-0.11176 1.0119 0.13918 1.4161 0.32823 1.6249 0.76004 0.22681 0.46904 0.28124 0.4896 0.29585 0.11177 0.0121-0.31272 0.23262-0.46302 0.67937-0.46302 0.3638 0 0.66146-0.11906 0.66146-0.26458 0-0.14552 0.35719-0.26458 0.79375-0.26458s0.79375 0.11906 0.79375 0.26458c0 0.14552 0.1318 0.26458 0.29289 0.26458s0.21984-0.19036 0.13056-0.42303c-0.37929-0.9884 5.0356 2.6724 8.5997 5.814 7.4992 6.6101 12.884 15.989 15.058 26.227 0.72383 3.409 1.015 11.83 0.53954 15.607-2.813 22.348-20.597 39.717-43.197 42.188-2.9351 0.32089-7.3595 0.3159-10.263-0.01156zm20.909-23.177c2.0638-1.4224 2.4167-2.7586 5.4015-20.451 1.9804-11.739 3.1018-19.6 3.1249-21.906 0.0225-2.2402-0.45966-3.1539-1.9438-3.6839-1.686-0.60205-3.6503-0.07281-11.749 3.1655-11.291 4.5146-39.854 16.923-41.095 17.852-1.676 1.2554-1.7762 2.8424-0.23938 3.7927 1.0748 0.66458 7.5818 2.7487 10.36 3.3181 3.863 0.79181 5.0354 0.34935 12.533-4.7302 9.0703-6.1451 16.645-11.038 17.087-11.038 0.23531 0 0.42784 0.15055 0.42784 0.33455 0 0.37181-4.3645 4.7249-11.353 11.323-2.5335 2.3921-4.9446 4.8136-5.3578 5.3811-0.95965 1.3179-0.99034 2.5736-0.0917 3.7518 0.77254 1.0129 17.163 12.135 18.919 12.839 1.5174 0.60771 3.1379 0.62837 3.976 0.050702zm7.4011-67.282c-0.23847-0.15411-0.2711-0.2581-0.0818-0.26053 0.17331-0.0021 0.3887 0.11501 0.47864 0.26053 0.20301 0.32849 0.11142 0.32849-0.39688 0z" fill="#32a8dc"/>
      <path id="s" d="m242.75 31.217c-8.7253-0.91206-17.584-4.4178-24.453-9.6768-2.2367-1.7125-6.2777-5.6368-8.1146-7.8801-4.96-6.0574-8.512-13.625-10.066-21.446-0.73983-3.7229-0.99552-10.886-0.53132-14.885 0.6154-5.3018 2.4151-11.252 4.8838-16.146 1.2434-2.4652 4.3742-7.0636 5.8913-8.6528 0.70007-0.73339 1.1836-1.2156 1.0744-1.0716-0.38798 0.512-0.17793 0.57668 1.5214 0.46848 1.626-0.10354 1.7198-0.07794 1.7198 0.46938 0 0.52603 0.0379 0.54096 0.41538 0.16351 0.64141-0.64141 1.6572-0.78915 3.407-0.49553 0.88085 0.1478 1.6412 0.16659 1.6898 0.04176 0.0485-0.12484 0.43546-0.22698 0.85989-0.22698 0.61775 0 0.7717 0.11566 0.7717 0.57974 0 0.51831 0.035 0.53386 0.33073 0.14677 0.49095-0.64271 1.7859-0.90253 1.7859-0.35832 0 0.44016 0.94297 0.60948 1.1024 0.19795 0.0485-0.12519 0.9514-0.31099 2.0064-0.4129 1.8206-0.17585 1.9182-0.15753 1.9182 0.3599v0.54519l0.52917-0.52917c0.62217-0.62216 1.5875-0.70261 1.5875-0.13229 0 0.27718 0.27928 0.39688 0.92604 0.39688s0.92604-0.11969 0.92604-0.39688c0-0.48668 1.2195-0.5438 1.4123-0.06615 0.10676 0.26458 0.13762 0.26458 0.15434 0 0.0115-0.1819 0.31854-0.33073 0.68234-0.33073 0.50837 0 0.6624 0.13778 0.66551 0.59531 2e-3 0.34226 0.0867 0.47156 0.19844 0.30419 0.26281-0.39359 1.2552-0.8995 1.7645-0.8995 0.22785 0 0.41427 0.19499 0.41427 0.4333 0 0.37173 0.21617 0.40803 1.5214 0.25543 0.83674-0.09783 1.561-0.29282 1.6095-0.4333 0.0485-0.14048 0.43546-0.25543 0.8599-0.25543 0.60418 0 0.7717 0.11897 0.7717 0.54807 0 0.49824 0.0378 0.51027 0.41578 0.13229 0.22867-0.22868 0.51659-0.41578 0.63981-0.41578 0.12323 0 0.41238-0.07227 0.64256-0.1606 0.28335-0.10873 0.41852-0.01111 0.41852 0.30228 0 0.40981 0.18957 0.44309 1.6536 0.2903 0.90951-0.09492 1.6933-0.29047 1.7418-0.43457 0.0485-0.14409 0.43546-0.26199 0.8599-0.26199 0.62107 0 0.7717 0.11478 0.7717 0.58804v0.58804l0.41188-0.58804c0.4912-0.7013 1.7048-0.81055 1.7048-0.15347 0 0.37509 0.22633 0.41094 1.6536 0.26199 0.90951-0.09492 1.6933-0.29047 1.7418-0.43457 0.0485-0.14409 0.37593-0.26199 0.72761-0.26199 0.4855 0 0.64038 0.14329 0.64346 0.59531 2e-3 0.34226 0.0867 0.47156 0.19844 0.30419 0.53249-0.79749 2.1788-1.1773 2.1788-0.50263 0 0.45234 0.43723 0.54038 0.57853 0.11649 0.0514-0.15421 1.0138-0.34999 2.1387-0.43506 1.9818-0.14988 2.0453-0.13649 2.0453 0.43157 0 0.53272 0.0379 0.54832 0.41537 0.17088 0.64142-0.64141 1.6572-0.78915 3.407-0.49553 0.88085 0.1478 1.6412 0.16659 1.6898 0.04176 0.0485-0.12484 0.43546-0.22698 0.8599-0.22698 0.61775 0 0.7717 0.11566 0.7717 0.57974 0 0.51831 0.035 0.53386 0.33073 0.14677 0.49095-0.64271 1.7859-0.90253 1.7859-0.35832 0 0.44016 0.94298 0.60948 1.1024 0.19795 0.0485-0.12519 0.95139-0.31099 2.0064-0.4129 1.8206-0.17585 1.9182-0.15753 1.9182 0.3599v0.54519l0.52916-0.52917c0.62217-0.62216 1.5875-0.70261 1.5875-0.13229 0 0.27718 0.27929 0.39688 0.92605 0.39688 0.64675 0 0.92604-0.11969 0.92604-0.39688 0-0.48696 1.2102-0.54276 1.4344-0.06615 0.0856 0.1819 0.10639-0.02598 0.0463-0.46196-0.10479-0.76026-0.0559-0.7332 1.195 0.66146 1.6622 1.8533 4.7616 6.4233 5.9306 8.7445 2.4862 4.937 4.2804 10.863 4.897 16.175 0.46419 3.999 0.20851 11.162-0.53133 14.885-2.6317 13.243-10.659 24.89-22.017 31.946-9.0576 5.6263-20.053 8.161-30.614 7.0572zm20.777-23.224c1.8966-1.1565 2.4274-3.2852 5.6461-22.643 2.1018-12.641 2.9838-19.262 2.7738-20.823-0.3422-2.5434-2.2456-3.3228-5.7603-2.3586-3.4707 0.95217-14.097 5.3315-35.374 14.578-13.934 6.0556-13.395 5.8016-14.356 6.7629-0.9808 0.9808-0.96003 2.0675 0.0577 3.0182 1.2499 1.1676 10.54 3.9756 13.167 3.9799 0.61301 0.00106 1.7808-0.24743 2.5951-0.5521 0.84749-0.31708 6.2332-3.7059 12.595-7.9252 6.113-4.0542 11.354-7.4472 11.646-7.54 1.7055-0.54131 0.57533 0.84279-4.99 6.1112-7.4767 7.0777-10.93 10.515-11.338 11.284-0.69147 1.3053-0.49023 2.498 0.61372 3.6372 1.2654 1.3058 17.693 12.331 18.883 12.674 1.464 0.42106 2.9454 0.34279 3.8403-0.2029z" fill="#30a6db"/>
      <path id="t" d="m242.93 31.245c-16.217-1.6992-30.636-11.436-38.023-25.677-1.9661-3.7903-3.2148-6.9888-4.0721-10.431-1.1985-4.8119-1.3679-6.345-1.3588-12.301 0.01-6.5103 0.43809-9.3608 2.2222-14.794 0.95006-2.8933 3.0271-7.381 4.2352-9.1507 0.55587-0.81427 0.74679-0.73848 0.28997 0.1151-0.23978 0.44804-0.0782 0.47329 2.6458 0.41342 1.7941-0.03943 2.9012 0.03687 2.9012 0.19995 0 0.15918 0.34088 0.19022 0.85989 0.07831 0.47295-0.10198 1.6338-0.24214 2.5797-0.31146 0.94589-0.06932 1.8329-0.2389 1.9712-0.37682 0.47143-0.47036 1.2038-0.28026 1.2038 0.31247 0 0.5314 0.0786 0.55064 1.3891 0.34035 1.3319-0.21372 2.1023-0.22739 5.6224-0.09971 1.4032 0.0509 11.264 0.07366 14.817 0.0342 0.7276-0.0081 2.3349-0.0045 3.5719 0.0079 1.2369 0.01241 2.7847 0.01077 3.4396-0.0036 0.65485-0.01442 2.2027-0.01593 3.4396-0.0034 3.5216 0.03578 4.4266 0.0222 7.6068-0.11424 1.8869-0.08095 2.9766-0.03116 2.9766 0.13602 0 0.15918 0.34088 0.19022 0.8599 0.07831 0.47294-0.10198 1.6338-0.24214 2.5797-0.31146 0.94589-0.06932 1.8329-0.2389 1.9712-0.37682 0.47144-0.47036 1.2038-0.28025 1.2038 0.31247 0 0.5314 0.0786 0.55065 1.3891 0.34035 1.3352-0.21426 2.1496-0.22837 5.6224-0.09744 0.87313 0.03292 4.0283 0.02649 7.0115-0.01429s5.93 0.01296 6.5484 0.11941c1.264 0.21758 1.2858 0.18719 0.71168-0.99057l-0.41281-0.84676 0.54871 0.66146c1.0759 1.297 3.9702 7.5913 4.8665 10.583 1.5324 5.1152 1.8728 7.6264 1.8834 13.891 0.01 5.8154-0.16438 7.3757-1.3582 12.168-1.298 5.2113-4.1633 11.377-7.439 16.008-2.0907 2.9557-7.5571 8.557-10.376 10.632-6.3241 4.6553-13.343 7.6684-20.885 8.9655-3.5354 0.60803-9.7483 0.84714-13.043 0.50197zm20.65-23.281c1.0722-0.65371 1.9822-2.5278 2.5592-5.2709 1.4991-7.1266 5.4959-31.822 5.847-36.128 0.38807-4.759-1.7303-5.8956-7.4214-3.9819-4.0029 1.3461-16.779 6.7137-38.04 15.982-8.5102 3.7097-9.318 4.1029-10.16 4.9452-0.92974 0.92974-0.85231 2.2645 0.18184 3.1347 1.386 1.1663 10.465 3.8597 13.023 3.8634 2.3537 0.00347 3.9029-0.83012 13.908-7.4835 13.473-8.9598 13.801-9.1588 13.801-8.3885 0 0.3383-2.7416 3.088-10.774 10.806-6.9328 6.6614-7.3084 7.1682-6.5778 8.8743 0.19408 0.45322 0.69495 1.1361 1.1131 1.5176 1.2129 1.1065 16.5 11.357 17.958 12.042 1.6594 0.77908 3.3949 0.81286 4.5819 0.08917z" fill="#2ea4da"/>
      <path id="u" d="m243.12 31.221c-20.51-1.9563-37.708-16.917-42.5-36.972-2.0713-8.6687-1.5921-18.588 1.2798-26.494 0.39644-1.0914 0.76341-1.776 0.81549-1.5214 0.068 0.33247 0.35033 0.46302 1.0013 0.46302 0.49865 0 0.90664 0.11906 0.90664 0.26458s0.23812 0.26458 0.52916 0.26458c0.29105 0 0.52917-0.11302 0.52917-0.25116 0-0.14414 1.2965-0.2496 3.0427-0.24749 1.7094 0.0021 3.0427 0.11211 3.0427 0.25116 0 0.13612 0.23812 0.24749 0.52916 0.24749 0.29105 0 0.52917-0.11073 0.52917-0.24607 0-0.13711 1.2887-0.24373 2.9104-0.24078 1.6007 0.0029 2.9104 0.11364 2.9104 0.24607s0.23813 0.24078 0.52917 0.24078 0.52917-0.11906 0.52917-0.26458c0-0.16105 1.1906-0.26458 3.0427-0.26458 1.8521 0 3.0427 0.10353 3.0427 0.26458 0 0.14552 0.23813 0.26458 0.52917 0.26458s0.52917-0.11302 0.52917-0.25116c0-0.14414 1.2965-0.2496 3.0427-0.24749 1.7094 0.0021 3.0427 0.11211 3.0427 0.25116 0 0.13612 0.23813 0.24749 0.52917 0.24749s0.52917-0.11372 0.52917-0.2527c0-0.14571 1.2322-0.24935 2.9104-0.24477 1.6012 0.0044 2.9104 0.11804 2.9104 0.2527 0 0.13463 0.29766 0.24477 0.66146 0.24477s0.66146-0.11073 0.66146-0.24607c0-0.13711 1.2887-0.24373 2.9104-0.24078 1.6007 0.0029 2.9104 0.11364 2.9104 0.24607s0.23813 0.24078 0.52917 0.24078 0.52916-0.11958 0.52916-0.26573c0-0.16018 0.91957-0.25264 2.3151-0.23278 1.925 0.0274 2.6217-0.08563 4.1347-0.67072 1.0008-0.38702 1.8644-0.65884 1.9192-0.60405 0.0548 0.05479-2.0737 1.0265-4.73 2.1593-4.2627 1.8179-9.8311 4.2364-28.51 12.383-6.7806 2.9572-7.4083 3.3963-7.4083 5.1822 0 1.2252 1.1795 1.9969 4.9047 3.2088 6.8994 2.2446 9.4731 2.5673 12.029 1.508 0.80037-0.33174 4.6699-2.7503 8.599-5.3745 9.3185-6.2239 15.406-10.149 15.74-10.149 0.1471 0 0.26746 0.10973 0.26746 0.24385 0 0.13411-2.8849 3.0214-6.4109 6.4161-9.6635 9.3039-10.504 10.165-10.94 11.208-0.52624 1.2595-0.18042 2.3455 1.1493 3.6092 1.2349 1.1736 16.47 11.384 18.068 12.109 1.5158 0.68762 3.3048 0.69766 4.4084 0.024739 1.0789-0.65781 2.0093-2.4902 2.5568-5.0356 1.5715-7.3055 5.7855-33.319 6.0648-37.439l0.0897-1.3229 0.0477 1.3447 0.0477 1.3447 1.4552-0.12068c0.97223-0.08062 1.4552-0.02199 1.4552 0.17667 0 0.16354 0.23812 0.29735 0.52916 0.29735 0.29105 0 0.52917-0.11302 0.52917-0.25116 0-0.14414 1.2965-0.2496 3.0427-0.24749 1.7094 0.0021 3.0427 0.11211 3.0427 0.25116 0 0.13612 0.23812 0.24749 0.52916 0.24749 0.29105 0 0.52917-0.11372 0.52917-0.2527 0-0.14571 1.2322-0.24934 2.9104-0.24477 1.6011 0.0044 2.9104 0.11804 2.9104 0.2527 0 0.13463 0.29766 0.24477 0.66146 0.24477s0.66146-0.11906 0.66146-0.26458 0.46752-0.26458 1.0389-0.26458c0.77699 0 1.0628-0.11674 1.1336-0.46302 0.0521-0.25466 0.41905 0.42995 0.81549 1.5214 2.872 7.9065 3.3511 17.826 1.2798 26.494-5.6003 23.438-27.753 39.261-51.761 36.972z" fill="#2ca2d9"/>
      <path id="v" d="m243.42 31.216c-22.152-1.9525-40.069-18.847-43.591-41.104-0.51907-3.2806-0.44141-11.365 0.13967-14.538 0.53208-2.9063 1.0293-4.4934 0.7917-2.5271-0.0963 0.79671-0.0601 1.0717 0.10934 0.83111 0.18621-0.26438 0.55945-0.30832 1.4104-0.16604 0.63648 0.10642 1.219 0.29021 1.2945 0.40844 0.23242 0.36397 2.9054 0.62479 2.9054 0.2835 0-0.16427 0.28774-0.29867 0.63941-0.29867 0.35168 0 0.68507-0.13698 0.74087-0.3044 0.076-0.2281 0.59519-0.23112 2.0714-0.01201 1.2508 0.18564 2.0621 0.20018 2.2224 0.03981 0.36936-0.36936 2.1965-0.30867 2.3535 0.07816 0.1033 0.25459 0.19365 0.24563 0.39245-0.03891 0.17864-0.25571 0.55184-0.322 1.2108-0.21507 0.52599 0.08535 0.95252 0.04354 0.95252-0.09338 0-0.46496 1.0221-0.24967 1.1803 0.2486 0.17924 0.56476 2.3136 1.0604 2.4755 0.5748 0.0509-0.15268 0.38026-0.2776 0.73194-0.2776 0.35167 0 0.63941-0.11906 0.63941-0.26458 0-0.14552 0.65484-0.26458 1.4552-0.26458 1.1703 0 1.4552 0.08466 1.4552 0.43243 0 0.37153 0.26028 0.4138 1.8482 0.30019 1.0165-0.07273 2.0232-0.27747 2.2371-0.45497 0.29593-0.2456 0.8148-0.25642 2.1712-0.04525 1.1343 0.17659 1.8929 0.18568 2.0866 0.025 0.16733-0.13887 1.0077-0.234 1.8676-0.2114 1.0134 0.02663 1.8612-0.11385 2.4101-0.39933 0.46572-0.24223 1.0015-0.4307 1.1906-0.41883 0.18913 0.01188-0.068 0.20099-0.57148 0.42026-0.50344 0.21927-2.7061 1.2035-4.8948 2.1872-2.1887 0.98367-6.7303 3.0023-10.092 4.4859-7.197 3.1758-8.1463 3.9193-7.4724 5.8527 0.3803 1.0909 1.824 1.7918 6.8784 3.3395 3.6303 1.1116 4.3417 1.2458 6.7069 1.2656 2.3841 0.019923 2.7791-0.048212 3.993-0.68873 0.74094-0.39096 5.7416-3.6142 11.112-7.1629 10.86-7.1753 12.543-8.2349 12.543-7.8952 0 0.45926-2.5429 3.045-9.2944 9.4511-3.9704 3.7673-7.1426 6.9956-7.5396 7.673-0.82712 1.4114-0.72115 2.4921 0.36554 3.7278 0.96333 1.0954 17.453 12.151 18.868 12.651 0.60844 0.21467 1.705 0.39031 2.4369 0.39031 1.2045 0 1.4245-0.09865 2.321-1.0411 1.5874-1.6687 1.7386-2.3279 5.2846-23.036 1.1338-6.6212 2.0723-11.771 2.0856-11.443 0.022 0.54228 0.15377 0.59531 1.4793 0.59531 1.0642 0 1.4552 0.09858 1.4552 0.36684 0 0.46047 2.1497 0.81895 2.8262 0.47129 1.611-0.82791 1.8361-0.86581 3.5261-0.59365 1.1112 0.17895 1.7916 0.18408 1.9609 0.01479 0.37445-0.37446 2.2017-0.31912 2.3602 0.07147 0.10423 0.25688 0.19054 0.25034 0.38649-0.02929 0.18823-0.26858 0.59652-0.31267 1.6076-0.17361 0.74544 0.10252 1.3553 0.28312 1.3553 0.40133 0 0.35504 2.7411 0.64016 2.8555 0.29702 0.0545-0.16336 0.38674-0.29702 0.73842-0.29702 0.35167 0 0.63941-0.13474 0.63941-0.29942 0-0.19776 0.36793-0.25007 1.0837-0.15407l1.0837 0.14535-0.15334-0.97041c-0.332-2.1011 0.32525 0.19236 0.78734 2.7474 0.58232 3.2198 0.66682 11.337 0.15136 14.538-2.9425 18.278-15.345 33.039-32.58 38.776-3.7765 1.2571-7.3853 1.9939-11.515 2.3509-3.5609 0.30784-4.4431 0.30531-8.172-0.02336z" fill="#2aa0d8"/>
      <path id="w" d="m243.58 31.223c-18.98-1.5616-35.683-14.704-41.703-32.814-2.2735-6.8386-3.0625-15.201-2.0184-21.393 0.18935-1.1229 0.20264-1.138 0.23387-0.26458l0.0331 0.92604h1.3891c0.76399 0 2.0141 0.08369 2.7781 0.18597 1.1236 0.15044 1.3891 0.11252 1.3891-0.19844 0-0.25074 0.27602-0.38441 0.79375-0.38441 0.43656 0 0.79363 0.0893 0.79348 0.19844-1.4e-4 0.10914 1.0091 0.17553 2.2428 0.14753 1.2337-0.028 2.3124 0.0613 2.3971 0.19844 0.24524 0.39681 0.91662 0.28875 0.91662-0.14753 0-0.21828 0.12376-0.39688 0.27501-0.39688 0.56358 0 5.4357 0.54473 6.0088 0.67182 0.41403 0.09181 0.59531 0.0096 0.59531-0.26991 0-0.27018 0.26016-0.40192 0.79375-0.40192 0.43656 0 0.79375 0.10792 0.79375 0.23982 0 0.13392 0.41806 0.11151 0.94671-0.05074 0.70853-0.21745 1.0737-0.21122 1.4516 0.02476 0.55264 0.34513 3.1579 0.43864 3.1579 0.11335 0-0.19717 2.6614-0.92897 2.8161-0.77433 0.0429 0.04292-2.4484 1.1873-5.5362 2.5431-6.7117 2.947-7.7374 3.5078-8.2586 4.5157-1.0125 1.9579-0.0721 2.9809 3.9701 4.319 7.0857 2.3456 10.212 2.7883 12.785 1.8106 0.70615-0.26831 3.9519-2.2532 7.2127-4.4108 10.367-6.8594 13.15-8.6186 12.839-8.1165-0.24624 0.39842 0.45816 0.41649 1.2429 0.03188 0.31785-0.15577-2.7207 2.9696-6.7523 6.9453-6.4086 6.3196-7.3522 7.3538-7.5048 8.2251-0.209 1.1936 0.18327 2.2631 1.162 3.1681 1.0584 0.97859 17.28 11.774 18.387 12.236 0.52657 0.22002 1.6119 0.40003 2.4119 0.40003 1.2452 0 1.5872-0.11652 2.3767-0.80971 0.5644-0.49555 1.1393-1.3899 1.4817-2.305 0.53174-1.4212 2.1703-10.01 4.4028-23.079 0.55933-3.2742 1.0531-5.7001 1.0972-5.3907 0.0719 0.5037 0.30651 0.58108 2.249 0.74162 1.1928 0.09858 2.3771 0.24049 2.6318 0.31535 0.30192 0.08875 0.46302-0.0082 0.46302-0.2786 0-0.2844 0.24942-0.4147 0.79375-0.4147 0.43656 0 0.79375 0.0893 0.79375 0.19844 0 0.10914 0.62508 0.19844 1.3891 0.19844 0.76399 0 2.0141 0.08369 2.7781 0.18597 1.1236 0.15044 1.3891 0.11252 1.3891-0.19844 0-0.25074 0.27602-0.38441 0.79375-0.38441 0.43656 0 0.79375 0.0893 0.79375 0.19844 0 0.10914 0.62508 0.19844 1.3891 0.19844 0.76399 0 2.0141 0.08369 2.7781 0.18597 1.1236 0.15044 1.3891 0.11252 1.3891-0.19844 0-0.23365 0.25942-0.38441 0.66146-0.38441 0.3638 0 0.66211 0.0893 0.66291 0.19844 7.9e-4 0.10914 0.7747 0.20396 1.7198 0.2107l1.7183 0.01225 0.0304-0.80601c0.0554-1.4683 0.42879 1.0374 0.62895 4.2211 0.60055 9.5521-2.4026 20.297-8.0234 28.707-8.347 12.489-21.548 20.202-36.661 21.421-3.7397 0.30152-3.8422 0.30123-7.7699-0.02193z" fill="#289ed8"/>
      <path id="x" d="m243.58 31.223c-20.955-1.7241-38.587-17.237-43.085-37.906-0.66207-3.0422-1.1773-10.159-0.64867-8.9588 0.14427 0.32742 0.44473 0.59531 0.6677 0.59531s0.4054 0.14182 0.4054 0.31515 0.15514 0.10299 0.34475-0.15632c0.28452-0.38911 0.56186-0.43892 1.5875-0.28511 0.68351 0.1025 1.2428 0.2919 1.2428 0.4209 0 0.26912 1.4229 0.30682 2.3375 0.06193 0.46134-0.12353 0.52831-0.22204 0.26458-0.38921-0.25536-0.16188-0.19356-0.22495 0.22332-0.22788 0.31703-0.0021 0.75195 0.17148 0.96649 0.38602 0.34371 0.34371 0.40941 0.33969 0.55276-0.03386 0.12295-0.32042 0.38764-0.38742 1.084-0.27442 0.54592 0.08859 0.92135 0.03992 0.92135-0.11946 0-0.15925 0.31352-0.20011 0.76856-0.10017 0.44088 0.09683 0.84236 0.04939 0.94166-0.11127 0.24663-0.39906 0.93561-0.34713 0.93561 0.07051 0 0.41704 1.8771 0.45692 2.1788 0.04629 0.10691-0.14552 0.19621 0.0531 0.19843 0.44138 7e-3 1.1638 0.2746 1.5371 1.5764 2.1968 1.6052 0.81343 8.02 2.7497 10.586 3.1953 2.9283 0.50851 5.2588-0.057097 8.0075-1.9434 2.4617-1.6893 7.1454-4.5445 6.8285-4.1626-0.28326 0.3413-0.24991 0.40488 0.21239 0.40488 0.30163 0 0.66978 0.20836 0.8181 0.46302 0.25197 0.4326 0.27022 0.43038 0.27774-0.03382 7e-3 -0.433 0.14782-0.47448 1.0959-0.32287 0.68104 0.1089 1.2253 0.05996 1.4552-0.13087 0.20202-0.16766 0.36731-0.22612 0.36731-0.1299 0 0.09621-1.54 1.765-3.4223 3.7085-2.7157 2.804-3.4595 3.7315-3.6022 4.4921-0.21635 1.1532 0.18068 2.2275 1.1567 3.13 1.0584 0.97859 17.28 11.774 18.387 12.236 0.52657 0.22002 1.6301 0.40003 2.4522 0.40003 1.3761 0 1.5741-0.079256 2.4927-0.99791 1.3701-1.3701 1.7418-2.7321 3.7175-13.624 0.93171-5.1364 1.7592-9.0514 1.874-8.8658 0.14072 0.22768 0.29119 0.24673 0.47747 0.06044 0.3473-0.3473 5.4065-0.21449 5.5268 0.14508 0.1297 0.38771 0.86522 0.32087 1.3559-0.12322 0.46179-0.41792 1.5986-0.27307 1.5986 0.2037 0 0.15636 0.16073 0.06449 0.35717-0.20416 0.27204-0.37204 0.55582-0.44873 1.1906-0.32177 0.51334 0.10267 0.83346 0.05953 0.83346-0.1123 0-0.17031 0.29939-0.21323 0.76856-0.11019 0.44088 0.09683 0.84236 0.04939 0.94166-0.11127 0.25828-0.4179 0.93561-0.33813 0.93561 0.11019 0 0.28853 0.19783 0.3507 0.75893 0.23847 0.49171-0.09834 0.88645-0.01527 1.1211 0.23592 0.31709 0.33945 0.39727 0.33971 0.64415 0.0021 0.21473-0.29366 0.57837-0.34118 1.5247-0.19927 0.68351 0.1025 1.2428 0.2919 1.2428 0.4209 0 0.27563 0.91089 0.30372 2.1049 0.06491 0.59685-0.11937 0.74384-0.23576 0.49609-0.39282-0.24183-0.15331-0.12837-0.22446 0.36239-0.22724 0.40466-0.0024 0.83139 0.19672 0.98414 0.45897 0.25248 0.43348 0.2702 0.43156 0.27773-0.03004 7e-3 -0.43251 0.15178-0.47151 1.1785-0.31754 1.0725 0.16084 1.182 0.1246 1.308-0.43298 0.0756-0.33468 0.0928 0.82025 0.0381 2.5665-0.36128 11.538-6.6311 24.169-16.101 32.437-7.9733 6.9615-17.629 11.008-28.325 11.87-3.7397 0.30152-3.8422 0.30123-7.7699-0.02193zm-1.4802-46.215c-0.27012-0.05726-0.60657 0.01135-0.74766 0.15244-0.16567 0.16567 8e-3 0.20254 0.49112 0.1041 0.55376-0.1129 0.6203-0.17944 0.25654-0.25654z" fill="#289dd6"/>
      <path id="y" d="m240.65 30.838c-15.726-2.2907-29.487-12.451-36.427-26.896-2.415-5.0267-4.0604-10.918-4.4537-15.947-0.12733-1.6284-0.11271-1.7163 0.12109-0.7276 0.16074 0.67973 0.41672 1.1245 0.64722 1.1245 0.20971 0 0.38492 0.14883 0.38935 0.33073 4e-3 0.18355 0.12806 0.12467 0.27773-0.13229 0.3031-0.5204 1.4666-0.62981 1.6256-0.15286 0.13886 0.41658 3.2537 0.63796 3.4944 0.24836 0.25082-0.40583 1.736-0.37454 1.746 0.03679 4e-3 0.18355 0.12806 0.12467 0.27773-0.13229 0.29839-0.51232 1.5663-0.6406 1.5663-0.15847 0 0.22012 0.73349 0.25987 2.6458 0.14336 1.9783-0.12053 2.6479-0.08054 2.6539 0.15847 4e-3 0.17582 0.1294 0.1113 0.27773-0.14336 0.27656-0.47484 1.4522-0.64524 1.6104-0.23341 0.0485 0.12628 0.35609 0.3129 0.68351 0.4147 0.93739 0.29146 0.74772-0.53942-0.19844-0.86925-0.43656-0.15218-0.79375-0.32432-0.79375-0.38251 0-0.0582 1.8752 0.47408 4.1672 1.1828 5.7114 1.7662 8.2691 2.2176 10.242 1.808 0.83661-0.17368 2.3038-0.72375 3.2604-1.2224 1.3448-0.70093 1.7943-0.83041 1.9815-0.57077 0.17662 0.24494 0.20538 0.21971 0.10625-0.09322-0.0839-0.2649 0.13429-0.62568 0.57035-0.94301 1.14-0.82964 1.5665-0.97208 0.70627-0.2359-0.73523 0.6292-0.75148 0.67938-0.22049 0.6806 0.31529 7.93e-4 0.61799 0.13548 0.67264 0.29946 0.17271 0.51813 2.7074 0.60808 3.6655 0.13009 0.47212-0.23553 0.91692-0.42823 0.98843-0.42823 0.0715 0-0.46769 0.63198-1.1982 1.4044-2.5922 2.7408-2.8609 4.2886-1.0636 6.126 1.264 1.2923 16.411 11.49 18.376 12.372 1.5941 0.71546 3.641 0.75867 4.6404 0.097962 1.5514-1.0256 2.1922-3.0726 3.901-12.46 1.7123-9.4074 1.8594-10.106 1.7713-8.4201l-0.0577 1.1049 3.1401-0.01995c2.3902-0.01519 3.1936 0.06662 3.3641 0.34257 0.18333 0.29663 0.38636 0.30382 1.1172 0.03955 1.1432-0.41338 1.7795-0.41062 1.7896 0.0078 4e-3 0.18355 0.12806 0.12468 0.27773-0.13229 0.29556-0.50745 1.0467-0.61217 1.4559-0.20298 0.31267 0.31267 3.0262 0.39506 4.4098 0.13391 0.75026-0.1416 0.99415-0.09956 1.0002 0.17241 5e-3 0.23954 0.0981 0.20503 0.27773-0.10334 0.30967-0.53167 1.4681-0.62555 1.6323-0.13229 0.12234 0.3674 2.6163 0.40705 4.1305 0.06567 0.6423-0.14481 0.95341-0.09911 1.1204 0.16458 0.18308 0.28905 0.23206 0.26866 0.23527-0.09796 3e-3 -0.31642 0.21349-0.46302 0.66551-0.46302 0.3638 0 0.66146 0.11906 0.66146 0.26458s0.1732 0.26458 0.38489 0.26458c0.23886 0 0.44784-0.37642 0.55083-0.99219 0.28262-1.6897 0.38713-1.6007 0.23285 0.19844-0.23398 2.7285-0.84111 6.0238-1.5784 8.5669-5.2896 18.245-20.814 31.759-39.543 34.42-3.4271 0.48704-10.594 0.4807-13.978-0.01236z" fill="#269cd6"/>
      <path id="z" d="m241.54 30.964c-16.635-2.3731-30.435-12.453-37.456-27.358-1.477-3.1356-3.859-10.402-2.8836-8.7974 0.15475 0.25466 0.5731 0.46302 0.92967 0.46302 0.39989 0 0.64831 0.15208 0.64831 0.39688 0 0.28663 0.29399 0.39688 1.0583 0.39688 0.58208 0 1.0583 0.10255 1.0583 0.22789 0 0.12534 0.29766 0.17099 0.66146 0.10145 0.3638-0.069546 0.66146-0.23163 0.66146-0.36019 0-0.12856 0.29765-0.23374 0.66146-0.23374 0.48155 0 0.66145 0.14167 0.66145 0.52086 0 0.71051 0.73696 0.4096 0.84443-0.3448 0.10063-0.70645 1.5368-1.011 1.5368-0.32593 0 0.49809 0.74787 0.53219 2.6632 0.12142 1.0748-0.2305 1.506-0.21827 2.021 0.057314 0.57019 0.30516 0.6874 0.29176 0.90879-0.10385 0.33115-0.59173 1.5508-0.61021 1.5508-0.023495 0 0.36072 0.18269 0.39919 1.1245 0.23681 3.4576-0.59615 8.1359-0.65741 8.1359-0.10653 0 0.32076 0.98906 0.29434 1.1906-0.0318 0.0899-0.14552 0.44624-0.26458 0.79179-0.26458 0.48487 0 0.65097 0.16607 0.72776 0.7276 0.10025 0.73305 0.20778 0.62432 0.58881-0.59531 0.16853-0.53947 1.1135-0.50255 1.4259 0.055703 0.23089 0.41259 0.43058 0.42279 2.26 0.11539 2.1578-0.36257 2.5401-0.28768 2.5401 0.49768 0 0.69775 0.7386 0.38251 0.84443-0.36041 0.10063-0.70645 1.5368-1.011 1.5368-0.32593 0 0.29784 0.26246 0.41445 0.93284 0.41445h0.93283l-0.41972-0.81166c-0.23085-0.44641-0.36918-1.0715-0.30741-1.3891 0.0933-0.47952 0.11842-0.45562 0.14835 0.14099 0.0428 0.85399 1.2777 2.3357 2.6342 3.1609 0.53552 0.32576 4.5178 2.9416 8.8495 5.813 6.3819 4.2304 8.1509 5.2823 9.3261 5.5453 2.5049 0.56058 4.2021-0.36011 5.1676-2.8033 0.17227-0.43592 0.82453-3.2334 1.4495-6.2165s1.147-5.0297 1.1602-4.5479c0.0238 0.87448 0.026 0.87584 1.1484 0.73035 1.4599-0.18924 3.4206-0.2661 5.1594-0.20225 1.0357 0.038031 1.3891 0.15198 1.3891 0.44788 0 0.21828 0.22539 0.39688 0.50086 0.39688 0.27548 0 0.56939-0.17859 0.65316-0.39688 0.0838-0.21828 0.44578-0.39688 0.80448-0.39688 0.51097 0 0.67373 0.15755 0.75169 0.7276 0.0979 0.71563 0.18967 0.6294 0.56342-0.52917 0.19138-0.59325 1.1214-0.59995 1.4513-0.010451 0.2309 0.41259 0.43058 0.42279 2.26 0.11539 2.1578-0.36257 2.5401-0.28768 2.5401 0.49768 0 0.69775 0.7386 0.38251 0.84443-0.36041 0.10063-0.70645 1.5368-1.011 1.5368-0.32593 0 0.30713 0.27404 0.41445 1.0583 0.41445 0.58208 0 1.0583 0.10792 1.0583 0.23981 0 0.1319 0.23813 0.17754 0.52917 0.10143s0.52916-0.24356 0.52916-0.3721 0.35719-0.23372 0.79375-0.23372c0.61315 0 0.79375 0.11851 0.79375 0.52086 0 0.35429 0.12693 0.47216 0.39688 0.36857 0.21828-0.083765 0.39687-0.43721 0.39687-0.78545 0-0.35449 0.15688-0.63315 0.35645-0.63315 0.19604 0 0.49397-0.26789 0.66206-0.59531 0.27044-0.5268 0.28697-0.48873 0.14367 0.33073-0.32022 1.8312-1.7744 6.0035-2.997 8.599-6.9288 14.709-20.663 24.867-36.828 27.237-3.0382 0.44544-10.317 0.51302-13.063 0.12128z" fill="#249ad5"/>
      <path id="aa" d="m242.46 31.09c-13.748-1.6998-26.031-8.9283-33.929-19.966-1.6796-2.3475-5.4491-9.3706-5.176-9.6437 0.0692-0.069249 0.34482 0.2806 0.61239 0.77744 0.44616 0.82847 0.56482 0.89098 1.4316 0.7542 0.5198-0.082032 0.98478-0.2497 1.0333-0.3726 0.13326-0.33762 1.3081-0.26782 1.4256 0.084698 0.13878 0.41635 5.5692 0.40315 5.7082-0.013864 0.12399-0.37195 0.91823-0.38255 1.2836-0.017145 0.42733 0.42733 5.4016 0.41132 6.0916-0.019606 0.46529-0.29058 0.64962-0.2946 0.97889-0.021325 0.22312 0.18517 0.62247 0.26786 0.88745 0.18376 0.26498-0.084101 0.86601-0.04272 1.3356 0.091964 0.5656 0.16221 0.85382 0.15341 0.85382-0.026061 0-0.173 0.47821-0.20517 1.3229-0.088995 0.89211 0.1227 1.3229 0.087701 1.3229-0.10746 0-0.43825 1.2444-0.3465 1.4175 0.1045 0.12186 0.31756 0.29403 0.33858 0.8882 0.10848 0.45473-0.1761 1.5225-0.21868 2.7876-0.11115 1.3872 0.11791 2.0505 0.082817 2.0505-0.10848 0-0.38412 1.2527-0.3611 1.3815 0.025374 0.13879 0.41635 5.5692 0.40315 5.7082-0.013864 0.12501-0.37503 0.91937-0.3814 1.2904-0.010345 0.15616 0.15616 1.1027 0.29239 2.1034 0.30273 3.2828 0.033909 3.8039-0.028337 3.8039-0.45436 0-0.21828 0.0709-0.39688 0.15759-0.39688 0.0867 0 2.1195 1.2649 4.5174 2.8109 4.9603 3.1981 6.5505 3.916 8.2537 3.726 2.1316-0.23775 3.3347-1.7215 4.2599-5.2538 0.28015-1.0696 0.51592-1.63 0.52393-1.2454 8e-3 0.38461 0.20263 0.77146 0.43247 0.85966 0.52565 0.20171 2.4358-0.053351 3.2111-0.42879 0.43288-0.20961 0.68918-0.1985 0.97949 0.042431 0.21626 0.17948 0.61 0.25752 0.87498 0.17341 0.26498-0.0841 0.86601-0.04272 1.3356 0.091964 0.56561 0.16221 0.85383 0.15341 0.85383-0.026061 0-0.173 0.47821-0.20517 1.3229-0.088995 0.89211 0.1227 1.3229 0.087701 1.3229-0.10746 0-0.43825 1.2444-0.3465 1.4175 0.1045 0.12186 0.31756 0.29404 0.33858 0.8882 0.10848 0.45474-0.1761 1.5225-0.21868 2.7876-0.11115 1.3872 0.11791 2.0505 0.082817 2.0505-0.10848 0-0.38265 1.2525-0.36185 1.3807 0.022939 0.0681 0.20422 0.97009 0.30392 2.7172 0.30035 2.5594-0.00524 2.6286-0.021669 3.2395-0.76872 0.52039-0.63643 0.46579-0.41163-0.32832 1.3519-5.198 11.543-15.487 20.809-27.893 25.119-4.995 1.7354-8.4053 2.2957-14.57 2.3939-2.9832 0.04748-5.8407 0.03481-6.35-0.02816zm24.363-30.416c0.0127-0.30823 0.0754-0.37092 0.15985-0.15985 0.0764 0.19099 0.067 0.4192-0.0209 0.50712-0.0879 0.087918-0.15045-0.068352-0.13896-0.34727z" fill="#2298d4"/>
      <path id="ab" d="m243.12 31.102c-3.8867-0.53744-5.1455-0.77405-7.7453-1.4559-11.102-2.9115-21.359-10.197-27.161-19.293-0.57041-0.89418-0.62452-1.0712-0.2173-0.71078 0.4914 0.43488 1.1584 0.48153 7.1174 0.49781 4.5348 0.01238 6.6367 0.1098 6.7736 0.3139 0.14076 0.20992 0.26667 0.19007 0.43318-0.06826 0.18828-0.29212 0.58099-0.31441 1.9844-0.11262 0.9623 0.13837 1.7496 0.15343 1.7496 0.03347 0-0.36407 2.8505-0.25708 3.0005 0.11262 0.0889 0.21917 0.20792 0.23946 0.35277 0.06015 0.28172-0.34874 6.4363-0.4583 6.4363-0.11458 0 0.13908 0.17859 0.25287 0.39688 0.25287 0.21828 0 0.39687-0.13278 0.39687-0.29507 0-0.38988 2.967-0.03419 3.2371 0.38807 0.12479 0.19509 0.19583 0.13812 0.19843-0.15915 3e-3 -0.38436 0.25128-0.46302 1.4593-0.46302 0.80037 0 1.4552 0.11906 1.4552 0.26458 0 0.14552 0.17859 0.26458 0.39688 0.26458 0.21828 0 0.39687-0.12763 0.39687-0.28362 0-0.37409 2.9695-0.0204 3.2371 0.38556 0.12138 0.18417 0.1959 0.12104 0.19843-0.16809 3e-3 -0.38349 0.25023-0.46302 1.4372-0.46302 0.89857 0 1.4832 0.12337 1.5674 0.33073 0.10481 0.2583 0.18867 0.25314 0.38294-0.02355 0.2979-0.42428 3.2413-0.1563 3.5578 0.32391 0.12138 0.18417 0.1959 0.12104 0.19843-0.16809 3e-3 -0.3787 0.24498-0.46302 1.327-0.46302 0.72761 0 1.3229 0.11906 1.3229 0.26458 0 0.14552 0.17859 0.26458 0.39687 0.26458s0.39688-0.11158 0.39688-0.24795c0-0.14822 2.7137-0.24034 6.7469-0.22905 3.7108 0.0104 6.7469 0.12197 6.7469 0.24795 0 0.33452 0.73251 0.28046 0.84683-0.0625 0.0688-0.20653 0.57674-0.21896 1.7418-0.04262 0.90456 0.13691 1.6447 0.14904 1.6447 0.02696 0-0.36669 2.8495-0.2634 3.0005 0.10876 0.0889 0.21917 0.20793 0.23946 0.35278 0.06014 0.28171-0.34873 6.4363-0.45829 6.4363-0.11456 0 0.13908 0.1786 0.25287 0.39688 0.25287s0.39687-0.11906 0.39687-0.26458c0-0.14552 0.2282-0.26458 0.5071-0.26458 0.27891 0 0.7654-0.32742 1.0811-0.7276 1.1066-1.4027-0.51471 1.2296-1.9963 3.2411-6.8057 9.2402-17.596 15.751-29.887 18.035-2.0181 0.37488-10.979 0.70301-12.7 0.46504zm17.798-22.263c0.47555-0.058886 1.1899-0.057671 1.5875 0.0027 0.39758 0.060373 8e-3 0.10855-0.86463 0.10707-0.87313-0.00159-1.1984-0.050879-0.72287-0.10977z" fill="#2096d3"/>
      <path id="ac" d="m242.46 30.974c-7.5226-0.80002-16.103-4.0409-22.212-8.3896-2.2757-1.62-7.5526-6.3771-7.0998-6.4005 0.10408-0.0054 0.59203 0.34389 1.0843 0.77614 0.82988 0.72863 0.95745 0.76239 1.7504 0.46309 0.74206-0.2801 0.90008-0.26155 1.1938 0.14012 0.37733 0.51603 1.2062 0.62856 1.2062 0.16375 0-0.19418 0.32505-0.24645 0.92604-0.14893 0.50933 0.08265 0.92604 0.0387 0.92604-0.09767 0-0.13637 0.35719-0.24795 0.79375-0.24795 0.64044 0 0.79375 0.11198 0.79375 0.57974 0 0.51831 0.035 0.53386 0.33073 0.14677 0.5007-0.65547 1.6334-0.8413 2.1259-0.34877 0.46166 0.46166 1.5331 0.55361 1.9222 0.16497 0.13824-0.13807 0.76425-0.33298 1.3911-0.43314 1.0064-0.16078 1.1563-0.11878 1.2812 0.35887 0.13918 0.53222 0.14962 0.53281 0.64617 0.03626 0.60608-0.60608 1.3804-0.64952 1.9221-0.10783 0.21828 0.21828 0.6435 0.39688 0.94494 0.39688 0.31078 0 0.54806-0.17183 0.54806-0.39688 0-0.48668 1.2195-0.5438 1.4123-0.06615 0.10676 0.26458 0.13762 0.26458 0.15434 0 0.0115-0.1819 0.31854-0.33073 0.68234-0.33073 0.49268 0 0.66146 0.13985 0.66146 0.54807 0 0.49802 0.0379 0.51014 0.41538 0.13269 0.68202-0.68202 1.7327-0.82843 2.1222-0.29571 0.28029 0.38332 0.56939 0.43133 1.6786 0.27877 0.73701-0.10136 1.34-0.29219 1.34-0.42406s0.35719-0.23976 0.79375-0.23976c0.62649 0 0.79375 0.11549 0.79375 0.54807 0 0.49824 0.0378 0.51027 0.41578 0.13229 0.22867-0.22868 0.51659-0.41577 0.63981-0.41577 0.12323 0 0.39703-0.06638 0.60845-0.14751 0.21142-0.08113 0.58069 0.04878 0.8206 0.2887 0.34521 0.3452 0.71109 0.3984 1.7539 0.25497 0.72473-0.09968 1.3177-0.28912 1.3177-0.42099s0.35719-0.23976 0.79375-0.23976c0.64385 0 0.79375 0.11105 0.79375 0.58804v0.58804l0.41188-0.58804c0.48197-0.68811 1.4866-0.76848 2.088-0.16705 0.32849 0.3285 0.71047 0.38117 1.7387 0.23976 0.72473-0.09968 1.3177-0.28912 1.3177-0.42099s0.29766-0.23976 0.66146-0.23976c0.49267 0 0.66146 0.13985 0.66146 0.54807 0 0.49802 0.0379 0.51014 0.41537 0.13269 0.67381-0.67381 1.7326-0.8286 2.1126-0.30887 0.19888 0.27198 0.3678 0.33348 0.42712 0.15551 0.0544-0.16318 1.0098-0.36336 2.1434-0.44909 1.9818-0.14988 2.0453-0.13649 2.0453 0.43157 0 0.53272 0.0379 0.54832 0.41537 0.17088 0.66486-0.66485 1.7324-0.82882 2.1024-0.3229 0.36174 0.49471 1.1864 0.58972 1.1864 0.13669 0-0.19418 0.32505-0.24645 0.92605-0.14893 0.50932 0.08265 0.92604 0.0387 0.92604-0.09767 0-0.13637 0.35719-0.24795 0.79375-0.24795 0.64044 0 0.79375 0.11198 0.79375 0.57974 0 0.51831 0.035 0.53386 0.33073 0.14677 0.5007-0.65547 1.6334-0.8413 2.1259-0.34877 0.46165 0.46166 1.5331 0.55361 1.9222 0.16497 0.13825-0.13807 0.76425-0.33298 1.3911-0.43314 1.0064-0.16078 1.1563-0.11878 1.2812 0.35887 0.14077 0.5383 0.14404 0.53839 0.66292 0.01953 0.28743-0.28743 0.78948-0.48632 1.1187-0.44318 0.32849 0.04305 0.94604-0.13508 1.3723-0.39583 0.42629-0.26076-0.2437 0.51523-1.4888 1.7244-9.3874 9.1162-23.727 13.839-37.556 12.368z" fill="#1e94d2"/>
      <path id="ad" d="m242.59 30.964c-6.1529-0.64136-13.661-3.1126-18.256-6.0089-1.4842-0.93546-1.4287-1.1111 0.10396-0.32915 0.88012 0.449 1.235 0.4827 2.78 0.2639 1.217-0.17235 2.1367-0.15874 2.9398 0.04348 0.86271 0.21723 1.8518 0.21488 3.7773-9e-3 2.6206-0.30466 3.3145-0.22681 3.9973 0.44838 0.22159 0.21913 0.43314 0.26232 0.52917 0.10803 0.21363-0.34325 4.7458-0.87665 5.5839-0.65718 0.36381 0.09527 0.8065 0.36091 0.98378 0.59032 0.17727 0.22941 0.3261 0.2867 0.33073 0.12732 0.0104-0.36034 5.0075-0.99558 5.7167-0.72672 0.2802 0.10623 0.67559 0.35744 0.87864 0.55823 0.21002 0.2077 0.43815 0.25878 0.52916 0.1185 0.22192-0.34203 5.0944-0.92004 5.7286-0.67957 0.28427 0.10779 0.68974 0.36703 0.90105 0.57609 0.3343 0.33073 0.41338 0.31471 0.60887-0.12341 0.19888-0.44571 0.53444-0.50536 2.9231-0.51959 1.4841-0.0088 3.264-0.10899 3.9552-0.22256 1.0219-0.1679 1.2568-0.13397 1.2568 0.18159 0 0.58471 2.4881 0.27646 4.0349-0.49988 1.9098-0.95852 1.5032-0.55207-0.79606 0.79592-8.3442 4.8919-18.47 7.0103-28.507 5.9641z" fill="#1c92d1"/>
    </g>
  </g>
</svg>
