<svg id="a" width="250mm" height="250mm" version="1.1" viewBox="0 0 250 250" xmlns="http://www.w3.org/2000/svg">
  <g id="b">
    <g id="c">
      <path id="d" d="m85.301 187.43c-8.6858-1.1258-20.838-4.807-27.833-8.4312l-3.7573-1.9468 6.8136-0.45053c8.5447-0.565 15.985-2.6279 24.157-6.6976 6.904-3.4383 10.999-6.4713 10.716-7.9379-0.13256-0.68829-1.519-1.1958-4.7575-1.7415-8.4041-1.416-16.049-6.4144-20.615-13.479-1.3078-2.0235-2.3779-3.9146-2.3779-4.2024 0-0.28786 1.324-0.53552 2.9422-0.55035 4.0718-0.0374 8.2628-0.91896 8.8448-1.8606 0.68716-1.1118 0.03983-2.4484-1.1858-2.4484-1.9108 0-9.6438-4.1458-12.553-6.7302-4.9511-4.3976-8.9204-11.714-10.081-18.583-0.32767-1.9386-0.2546-2.0543 1.0402-1.6466 7.7087 2.4268 11.411 2.8097 12.013 1.2422 0.23484-0.61197-0.83665-2.0918-3.0646-4.2325-6.7082-6.4455-9.7237-13.375-9.7237-22.343 0-4.7128 1.055-9.9604 2.4305-12.09 0.45506-0.70447 1.8775 0.35506 6.7319 5.0144 6.628 6.3617 14.777 12.163 22.635 16.114 10.162 5.1096 26.85 9.5358 34.199 9.0713l3.0684-0.19394-0.21748-5.02c-0.66344-15.313 7.7719-27.681 21.78-31.936 3.5009-1.0634 5.3648-1.2445 10.341-1.0049 5.3371 0.257 6.63 0.55799 10.701 2.4913 2.5467 1.2094 5.7431 3.2043 7.1032 4.433 1.852 1.6731 3.0196 2.2341 4.6502 2.2341 2.2043 0 10.448-2.5 13.68-4.1484 0.96852-0.49403 1.9013-0.7579 2.0728-0.58638 0.82483 0.82483-6.131 9.1055-9.5634 11.385-0.76652 0.50902-1.3937 1.4509-1.3937 2.0931 0 1.5847 3.2568 1.5593 9.141-0.07124 2.4588-0.68136 4.635-1.2388 4.8361-1.2388 0.74321 0-5.1162 6.1766-8.7823 9.2578l-3.7868 3.1826-0.35095 8.8007c-1.1393 28.569-16.669 55.945-40.39 71.202-14.378 9.2477-29.933 13.565-48.221 13.384-5.1615-0.051-10.221-0.20119-11.243-0.33367z" fill="#1ca0f1" stroke-width=".61942"/>
    </g>
  </g>
</svg>
